<svg xmlns="http://www.w3.org/2000/svg" viewBox="0 0 137.28 139.28"><defs><style>.cls-1{fill:#151e29;}</style></defs><title>custom-iconldpi</title><g id="Capa_2" data-name="Capa 2"><g id="estilosycolores"><path class="cls-1" d="M133.44,59H120.22l3.53-39.81a9.74,9.74,0,0,0,7.84-9.54h0A9.64,9.64,0,0,0,121.91,0a9.85,9.85,0,0,0-9.69,9.07L57,30.59A9.63,9.63,0,1,0,42.28,42.28L27.36,63.64A19.43,19.43,0,0,0,0,81.32a19.29,19.29,0,0,0,19.37,19.37A19.61,19.61,0,0,0,30,97.46l36.28,29.21a8.89,8.89,0,0,0-.46,2.92,9.65,9.65,0,0,0,9.68,9.69h0a9.65,9.65,0,0,0,9.69-9.69,10,10,0,0,0-1.85-5.68l22.75-37.82h10v5.84h-5.85a1.87,1.87,0,0,0-1.84,1.84v2h19.21v-2a1.87,1.87,0,0,0-1.84-1.84h-5.84V86.09h13.53a3.81,3.81,0,0,0,3.84-3.85V62.88A3.81,3.81,0,0,0,133.44,59ZM121.91,3.84a5.85,5.85,0,1,1-5.84,5.84A5.84,5.84,0,0,1,121.91,3.84Zm-9.07,9.07a9.54,9.54,0,0,0,7.07,6.15l-3.54,39.82H102.54a3.86,3.86,0,0,0-3.85,3.53L57.19,38.89a9.93,9.93,0,0,0,1.07-4.3h0V34ZM48.42,29.05a5.85,5.85,0,1,1-5.84,5.85A5.85,5.85,0,0,1,48.42,29.05ZM45.5,44.12a8.7,8.7,0,0,0,2.77.46,9.89,9.89,0,0,0,6.3-2.3l44,24.9V77.63L38.59,81.78v-.61a19.07,19.07,0,0,0-8.15-15.68ZM3.84,81.32A15.53,15.53,0,1,1,19.37,96.85,15.68,15.68,0,0,1,3.84,81.32ZM33.05,94.85a18.78,18.78,0,0,0,5.07-9.22l60.42-4.15v.76a3.94,3.94,0,0,0,3.07,3.85L80.4,121.29a10.17,10.17,0,0,0-4.92-1.38,9,9,0,0,0-7.22,3.38ZM133.44,82.24h-30.9V62.88h30.9Z"/></g></g></svg>