<svg xmlns="http://www.w3.org/2000/svg" viewBox="0 0 133.47 133.61"><defs><style>.cls-1{fill:#151e29;}</style></defs><title>Diseño-iconldpi</title><g id="Capa_2" data-name="Capa 2"><g id="estilosycolores"><path class="cls-1" d="M131.15,52.59h.3a2.24,2.24,0,1,0-.46-4.46H117.62V36.76H131.3a2.24,2.24,0,0,0-.46-4.46H117.47V24.61a10,10,0,0,0-10-10h-6.61V2.32A2.35,2.35,0,0,0,98.56,0a2.5,2.5,0,0,0-1.85,2.3v12.3H84.11V2a2.24,2.24,0,1,0-4.46.46V14.77H68.27V2.17a2.24,2.24,0,1,0-4.46.46v12.3H52.28V2.32a2.24,2.24,0,1,0-4.45.46v12.3H36.45V2.48A2.24,2.24,0,0,0,32,2.94v12.3H24.31a10,10,0,0,0-10,10v7.68H2a2.16,2.16,0,0,0-2,2,2.23,2.23,0,0,0,2,2.46H14.31V48.75H2a2.14,2.14,0,0,0-2,2,2.24,2.24,0,0,0,2,2.46H14.31V64.74H2a2.14,2.14,0,0,0-2,2,2.23,2.23,0,0,0,2,2.46H14.31V80.57H2a2.14,2.14,0,0,0-2,2A2.24,2.24,0,0,0,2,85H14.31V97H2a2.14,2.14,0,0,0-2,2,2.24,2.24,0,0,0,2,2.46H14.31v8.76a10,10,0,0,0,10,10H32v11.22h0a2.24,2.24,0,0,0,2.31,2.16,2.11,2.11,0,0,0,2.15-2.16V120.23H47.83v11.22h0a2.23,2.23,0,0,0,2.3,2.16,2.11,2.11,0,0,0,2.15-2.16V120.23H63.81v11.22h0a2.24,2.24,0,0,0,2.31,2.16h0a2.11,2.11,0,0,0,2.15-2.16V120.23H79.65v11.22a2.11,2.11,0,0,0,2.15,2.16h0A2.11,2.11,0,0,0,84,131.45V120.23H96.71v11.22h0A2.24,2.24,0,0,0,99,133.61a2.11,2.11,0,0,0,2.15-2.16V120.23h6.61a10,10,0,0,0,10-10v-8.76h13.68A2.24,2.24,0,1,0,131,97H117.62V84.41H131.3a2.24,2.24,0,1,0-.46-4.45H117.47V68.58h13.68a2.24,2.24,0,0,0-.46-4.46H117.31V52.59ZM113.31,64.12h-5.38a2.15,2.15,0,0,0-2,2,2.23,2.23,0,0,0,2,2.46h5.38V80h-5.38a2.14,2.14,0,0,0-2,2,2.23,2.23,0,0,0,2,2.46h5.38V97h-5.38a2.14,2.14,0,0,0-2,2,2.23,2.23,0,0,0,2,2.46h5.38v8.76a5.5,5.5,0,0,1-5.53,5.53h-6.61v-7.84a2.24,2.24,0,0,0-4.46.47v7.53H84.11v-7.84a2.24,2.24,0,0,0-4.46.46v7.53H68.27v-7.84a2.24,2.24,0,0,0-4.46.46v7.54H52.28V108.4a2.24,2.24,0,1,0-4.45.46v7.53H36.45v-7.84A2.24,2.24,0,0,0,32,109v7.53H24.31A5.51,5.51,0,0,1,18.77,111v-8.76h6.77a2.24,2.24,0,0,0-.47-4.46H18.62V85.18h6.76a2.24,2.24,0,0,0-.46-4.46H18.46V69.35h6.77a2.24,2.24,0,0,0-.46-4.46H18.31V53.36h6.76a2.24,2.24,0,0,0-.46-4.46H18.16V37.53h6.76a2.24,2.24,0,0,0-.46-4.46H18V25.38a5.51,5.51,0,0,1,5.54-5.53h7.68V26.3h0a2.24,2.24,0,0,0,2.31,2.16,2.2,2.2,0,0,0,2.15-2.16V19.85H47.06V26.3a2.23,2.23,0,0,0,2.3,2.16,2.11,2.11,0,0,0,2.16-2.16V19.85H63.05V26.3a2.23,2.23,0,0,0,2.3,2.16A2.11,2.11,0,0,0,67.5,26.3V19.85H78.88V26.3A2.11,2.11,0,0,0,81,28.46h0a2.24,2.24,0,0,0,2.31-2.16V19.85H96.71V26.3A2.24,2.24,0,0,0,99,28.46h0a2.23,2.23,0,0,0,2.3-2.16V19.85h6.61a5.51,5.51,0,0,1,5.54,5.53v7.69h-5.38a2.14,2.14,0,0,0-2,2,2.25,2.25,0,0,0,2,2.46h5.38V48.9h-5.38a2.15,2.15,0,0,0-2,2,2.24,2.24,0,0,0,2,2.46h5.38V64.12Z"/><path class="cls-1" d="M77.19,51.67H55.05a4.46,4.46,0,0,0-4.46,4.46v22.6h0a4.46,4.46,0,0,0,4.46,4.45H77a4.46,4.46,0,0,0,4.46-4.45V56.13h0A4.23,4.23,0,0,0,77.19,51.67Zm0,27.21H55.05V56.13H77V78.88Z"/></g></g></svg>