<svg xmlns="http://www.w3.org/2000/svg" viewBox="0 0 55.31 55.31"><defs><style>.cls-1,.cls-2{fill:#fff;}.cls-2{fill-rule:evenodd;}</style></defs><title>facebook-iconldpi</title><g id="Capa_2" data-name="Capa 2"><g id="estilosycolores"><g id="Layer_2" data-name="Layer 2"><g id="Layer_1-2" data-name="Layer 1-2"><path class="cls-1" d="M27.68,3A24.69,24.69,0,1,0,52.33,27.7v0A24.71,24.71,0,0,0,27.68,3Zm0,52.32A27.66,27.66,0,1,1,55.31,27.63v.05A27.69,27.69,0,0,1,27.68,55.31Z"/><path class="cls-2" d="M23.42,27.79v16a.42.42,0,0,0,.42.42h5.94a.42.42,0,0,0,.42-.42h0V27.44h4.33a.4.4,0,0,0,.4-.37l.42-4.92a.42.42,0,0,0-.4-.44h-4.7V18.32a1.47,1.47,0,0,1,1.47-1.48h3.33a.42.42,0,0,0,.28-.44V11.51a.42.42,0,0,0-.42-.42H29.29a6,6,0,0,0-5.87,6v4.68H20.35a.43.43,0,0,0-.42.4V27a.42.42,0,0,0,.42.43h3.07Z"/></g></g></g></g></svg>