<svg xmlns="http://www.w3.org/2000/svg" viewBox="0 0 55.21 55.21"><defs><style>.cls-1{fill:#fff;}</style></defs><title>linkedin-iconldpi</title><g id="Capa_2" data-name="Capa 2"><g id="estilosycolores"><g id="Layer_2" data-name="Layer 2"><g id="Layer_1-2" data-name="Layer 1-2"><path class="cls-1" d="M27.63,3A24.64,24.64,0,1,0,52.24,27.65v0A24.66,24.66,0,0,0,27.63,3Zm0,52.22A27.61,27.61,0,1,1,55.21,27.58v.05A27.62,27.62,0,0,1,27.63,55.21Z"/><path class="cls-1" d="M15,40.47h5.31a.44.44,0,0,0,.47-.42V22.18a.47.47,0,0,0-.47-.47H15a.47.47,0,0,0-.47.47V40a.45.45,0,0,0,.45.44ZM43.21,29.71V40a.42.42,0,0,1-.4.44H37.46a.41.41,0,0,1-.45-.39V30.44c0-2.53-.91-4.24-3.16-4.24a3.38,3.38,0,0,0-3.2,2.34,4.15,4.15,0,0,0-.21,1.52V40a.45.45,0,0,1-.45.44H24.63a.43.43,0,0,1-.46-.42V22.18a.43.43,0,0,1,.42-.47h5.33a.47.47,0,0,1,.47.47v2.2h0A6.15,6.15,0,0,1,36,21.27C40.15,21.27,43.21,24,43.21,29.71Z"/><path class="cls-1" d="M17.41,12.63a3.58,3.58,0,0,1,1.33.26,3.74,3.74,0,0,1,1.08.73,3.14,3.14,0,0,1,.72,1.1A3.19,3.19,0,0,1,20.8,16a3.58,3.58,0,0,1-.26,1.29,3.41,3.41,0,0,1-1.8,1.8,3.57,3.57,0,0,1-1.29.25,3.41,3.41,0,0,1-1.26-.25,3.12,3.12,0,0,1-1.1-.73,3.91,3.91,0,0,1-.73-1.07,3.63,3.63,0,0,1-.3-1.29,3.19,3.19,0,0,1,.26-1.26,3.88,3.88,0,0,1,.72-1.1,4,4,0,0,1,1.1-.73A3.43,3.43,0,0,1,17.41,12.63Z"/></g></g></g></g></svg>