<svg xmlns="http://www.w3.org/2000/svg" viewBox="0 0 140.05 139.89"><defs><style>.cls-1{fill:#151e29;}</style></defs><title>Servicio-iconldpi</title><g id="Capa_2" data-name="Capa 2"><g id="estilosycolores"><path class="cls-1" d="M139.74,70.87a11.6,11.6,0,0,0-9.22-10v-.31a60.32,60.32,0,0,0-15.68-40.74s-.16,0-.16-.15a57.11,57.11,0,0,0-7.07-6.61A60.63,60.63,0,0,0,9.38,60.57v.31A11.52,11.52,0,0,0,0,72.25v14A11.68,11.68,0,0,0,11.68,97.93h7.07a9.32,9.32,0,0,0,9.38,9.37h6.92a2.36,2.36,0,0,0,2.31-2.3V53.65a2.36,2.36,0,0,0-2.31-2.3H28.13a8.27,8.27,0,0,0-3.84.92,46.56,46.56,0,0,1,91.62,0,8.27,8.27,0,0,0-3.84-.92H105a2.36,2.36,0,0,0-2.31,2.3v51.19a2.37,2.37,0,0,0,2.31,2.31h7.07a9.32,9.32,0,0,0,9.38-9.38h2.3v9.38a21,21,0,0,1-21.06,20.91H97.77a9.23,9.23,0,0,0-9.07-6.92H79.32a9.38,9.38,0,0,0,0,18.75H88.7A9.4,9.4,0,0,0,97.77,133h4.92a25.72,25.72,0,0,0,25.67-25.68V97.93a11.85,11.85,0,0,0,11.69-10.77h0V70.87Zm-51,64.56H79.32a4.61,4.61,0,1,1,0-9.22H88.7a4.62,4.62,0,0,1,4.61,4.61A4.72,4.72,0,0,1,88.7,135.43ZM18.6,77V93.31H11.68a6.82,6.82,0,0,1-6.91-7.07v-14a7,7,0,0,1,6.91-7.07h7.07V77ZM28,56h4.61v46.58H28a4.53,4.53,0,0,1-4.61-4.61V60.57A4.72,4.72,0,0,1,28,56Zm88.7,42a4.53,4.53,0,0,1-4.61,4.61h-4.61V56h4.61a4.53,4.53,0,0,1,4.61,4.61ZM70,9.38h0A51.4,51.4,0,0,0,18.6,60.57H14a55.9,55.9,0,0,1,90.7-43.81c1.54,1.07,4.15,3.84,6.61,6.15a56.12,56.12,0,0,1,14.6,37.66h-4.61A51.2,51.2,0,0,0,70,9.38Zm58.41,83.93h-7.07v-28h6.92a7,7,0,0,1,6.92,6.15V87.32h0A6.71,6.71,0,0,1,128.36,93.31Z"/><path class="cls-1" d="M70,55.8A24.29,24.29,0,1,0,94.39,80.09h0A24.57,24.57,0,0,0,70,55.8Zm0,44.12h0A19.75,19.75,0,1,1,89.78,80.09,20,20,0,0,1,70,99.92Z"/><path class="cls-1" d="M70,77.48a8.72,8.72,0,0,0-6.31,2.61,1.64,1.64,0,0,0,0,1.85,1.89,1.89,0,0,0,2.46.46,5.57,5.57,0,0,1,4-1.69,8.66,8.66,0,0,1,2,.31,8.56,8.56,0,0,1,2,1.22,1.85,1.85,0,0,0,2.3-.3,1.91,1.91,0,0,0,.16-2A11.68,11.68,0,0,0,70,77.48Z"/><path class="cls-1" d="M70,70.87a15.72,15.72,0,0,0-11.07,4.61A1.63,1.63,0,1,0,61,77.94l.15-.15A12.13,12.13,0,0,1,74.25,75a12.82,12.82,0,0,1,4.31,2.77,1.83,1.83,0,0,0,2.3-.31,1.62,1.62,0,0,0,0-2A15.09,15.09,0,0,0,70,70.87Z"/><path class="cls-1" d="M70,84.4h0a1.85,1.85,0,1,0,1.84,1.84h0A2.11,2.11,0,0,0,70,84.4Z"/></g></g></svg>