<svg xmlns="http://www.w3.org/2000/svg" viewBox="0 0 55.31 55.31"><defs><style>.cls-1{fill:#fff;}</style></defs><title>twitter-iconldpi</title><g id="Capa_2" data-name="Capa 2"><g id="estilosycolores"><g id="Layer_2" data-name="Layer 2"><g id="Layer_1-2" data-name="Layer 1-2"><path class="cls-1" d="M27.68,3A24.69,24.69,0,1,0,52.33,27.7v0A24.71,24.71,0,0,0,27.68,3Zm0,52.32A27.66,27.66,0,1,1,55.31,27.63v.05A27.69,27.69,0,0,1,27.68,55.31Z"/><path class="cls-1" d="M43.56,17.57a13.43,13.43,0,0,1-3.27.94c.53,0,1.31-1,1.61-1.43a5.93,5.93,0,0,0,1.08-2V15h-.17A16.65,16.65,0,0,1,39,16.4a.28.28,0,0,1-.28,0,1.83,1.83,0,0,0-.33-.35,6.93,6.93,0,0,0-1.87-1.15,6.57,6.57,0,0,0-2.88-.47,7.08,7.08,0,0,0-2.73.78A6.66,6.66,0,0,0,28.68,17a6.46,6.46,0,0,0-1.33,2.62,7.22,7.22,0,0,0,0,2.78c0,.14,0,.17-.12.14a20.58,20.58,0,0,1-13.36-6.78c-.16-.17-.23-.17-.37,0a6.72,6.72,0,0,0,1.15,8c.25.26.53.49.81.73a6.74,6.74,0,0,1-2.55-.73c-.16,0-.23,0-.25.14a2.36,2.36,0,0,0,0,.75A6.79,6.79,0,0,0,16.84,30a5.19,5.19,0,0,0,.87.28,8.6,8.6,0,0,1-2.48.12c-.19,0-.26,0-.19.23a7,7,0,0,0,5.29,4.45h.75c-.59.91-2.64,1.56-3.6,1.91a13.25,13.25,0,0,1-5.48.71h-.44c-.1,0,0,.11,0,.18a7.53,7.53,0,0,0,1.12.68,21,21,0,0,0,3.72,1.57,19.59,19.59,0,0,0,19-4.45,20,20,0,0,0,5.24-14.48c0-.21.23-.33.37-.44a12.42,12.42,0,0,0,2.58-2.69.74.74,0,0,0,.16-.49h0S43.68,17.52,43.56,17.57Z"/></g></g></g></g></svg>