<svg xmlns="http://www.w3.org/2000/svg" viewBox="0 0 135.5 135.5"><defs><style>.cls-1{fill:#ff4445;}.cls-2{fill:#fff;}</style></defs><title>Faviconldpi</title><g id="Capa_2" data-name="Capa 2"><g id="Appicon"><rect class="cls-1" width="135.5" height="135.5" rx="29.02"/><path class="cls-2" d="M70.63,95.38a5.58,5.58,0,0,1-5.58-5.5A19.66,19.66,0,0,0,45.1,70.57a5.59,5.59,0,1,1-.18-11.17,30.81,30.81,0,0,1,31.3,30.3,5.59,5.59,0,0,1-5.5,5.68Z"/><path class="cls-2" d="M90.79,91.84a5.58,5.58,0,0,1-5.58-5.49A35.67,35.67,0,0,0,49,51.3a5.59,5.59,0,1,1-.18-11.17,46.83,46.83,0,0,1,47.55,46,5.58,5.58,0,0,1-5.49,5.67Z"/><path class="cls-2" d="M40.93,94c-1.21-.94-1.81-2.62-1.81-5V86.49c0-2.41.65-4.08,1.93-5s3.35-1.41,6.19-1.41c3,0,5.11.47,6.31,1.41s1.8,2.62,1.8,5v2.45q0,3.74-1.86,5.08c-1.25.9-3.38,1.36-6.38,1.36S42.13,94.91,40.93,94Z"/></g></g></svg>